<?xml version="1.0" encoding="UTF-8"?><svg xmlns="http://www.w3.org/2000/svg" xmlns:xlink="http://www.w3.org/1999/xlink" contentScriptType="text/ecmascript" zoomAndPan="magnify" contentStyleType="text/css" style="stroke-opacity: 1.0;" version="1.0" width="48" fill="none" preserveAspectRatio="xMidYMid meet" viewBox="0 0 48 48" height="48" opacity="1.0">
<rect x="6" y="5" width="12" stroke-linejoin="round" rx="6" height="38" stroke="#4CAF50" stroke-width="2.0"/>
<rect x="30" y="5" width="12" stroke-linejoin="round" rx="6" height="38" stroke="#4CAF50" stroke-width="2.0"/>
<path fill="#4CAF50" fill-opacity="1.0" stroke-width="2.0" d="M12 43C15.3137 43 18 40.3137 18 37C18 33.6863 15.3137 31 12 31C8.68629 31 6 33.6863 6 37C6 40.3137 8.68629 43 12 43Z" stroke-linejoin="round" stroke="#4CAF50"/>
<path fill="#4CAF50" fill-opacity="1.0" stroke-width="2.0" d="M36 43C39.3137 43 42 40.3137 42 37C42 33.6863 39.3137 31 36 31C32.6863 31 30 33.6863 30 37C30 40.3137 32.6863 43 36 43Z" stroke-linejoin="round" stroke="#4CAF50"/>
<path d="M30 21C30 17.6863 27.3137 15 24 15C20.6863 15 18 17.6863 18 21" stroke-width="2.0" stroke-linejoin="round" stroke-linecap="round" stroke="#4CAF50"/>
<path d="M30 31C30 27.6863 27.3137 25 24 25C20.6863 25 18 27.6863 18 31" stroke-width="2.0" stroke-linejoin="round" stroke-linecap="round" stroke="#4CAF50"/>
</svg>