<?xml version="1.0" encoding="UTF-8"?><svg xmlns="http://www.w3.org/2000/svg" xmlns:xlink="http://www.w3.org/1999/xlink" contentScriptType="text/ecmascript" zoomAndPan="magnify" contentStyleType="text/css" style="stroke-opacity: 1.0;" version="1.0" width="48" fill="none" preserveAspectRatio="xMidYMid meet" viewBox="0 0 48 48" height="48" opacity="1.0">
<path fill="#4CAF50" fill-opacity="1.0" stroke-width="2.0" d="M30.2972 18.7786C30.2972 18.7786 27.0679 27.8809 25.5334 29.47C23.9988 31.0591 21.4665 31.1033 19.8774 29.5687C18.2882 28.0341 18.244 25.5019 19.7786 23.9127C21.3132 22.3236 30.2972 18.7786 30.2972 18.7786Z" stroke-linejoin="round" stroke="#4CAF50"/>
<path d="M38.8492 38.8492C42.6495 35.049 45 29.799 45 24C45 12.402 35.598 3 24 3C12.402 3 3 12.402 3 24C3 29.799 5.35051 35.049 9.15076 38.8492" stroke-width="2.0" stroke-linejoin="round" stroke-linecap="round" stroke="#4CAF50"/>
<path d="M24 4V8" stroke-width="2.0" stroke-linejoin="round" stroke-linecap="round" stroke="#4CAF50"/>
<path d="M38.8454 11.1421L35.7368 13.6593" stroke-width="2.0" stroke-linejoin="round" stroke-linecap="round" stroke="#4CAF50"/>
<path d="M42.5223 27.2328L38.6248 26.333" stroke-width="2.0" stroke-linejoin="round" stroke-linecap="round" stroke="#4CAF50"/>
<path d="M5.47737 27.2328L9.37485 26.333" stroke-width="2.0" stroke-linejoin="round" stroke-linecap="round" stroke="#4CAF50"/>
<path d="M9.15463 11.142L12.2632 13.6593" stroke-width="2.0" stroke-linejoin="round" stroke-linecap="round" stroke="#4CAF50"/>
</svg>