<?xml version="1.0" encoding="UTF-8"?><svg xmlns="http://www.w3.org/2000/svg" xmlns:xlink="http://www.w3.org/1999/xlink" contentScriptType="text/ecmascript" zoomAndPan="magnify" contentStyleType="text/css" style="stroke-opacity: 1.0;" version="1.0" width="48" fill="none" preserveAspectRatio="xMidYMid meet" viewBox="0 0 48 48" height="48" opacity="1.0">
<path stroke-linecap="round" fill-opacity="1.0" fill="#4CAF50" stroke-linejoin="round" d="M19 20C22.866 20 26 16.866 26 13C26 9.13401 22.866 6 19 6C15.134 6 12 9.13401 12 13C12 16.866 15.134 20 19 20Z" stroke="#4CAF50" stroke-width="2.0"/>
<path fill="#4CAF50" clip-rule="evenodd" fill-opacity="1.0" d="M32 22H44H32Z" fill-rule="evenodd"/>
<path d="M32 22H44" stroke-width="2.0" stroke-linejoin="round" stroke-linecap="round" stroke="#4CAF50"/>
<path fill="#4CAF50" clip-rule="evenodd" fill-opacity="1.0" d="M32 16H44H32Z" fill-rule="evenodd"/>
<path d="M32 16H44" stroke-width="2.0" stroke-linejoin="round" stroke-linecap="round" stroke="#4CAF50"/>
<path fill="#4CAF50" clip-rule="evenodd" fill-opacity="1.0" d="M35 13V25V13Z" fill-rule="evenodd"/>
<path d="M35 13V25" stroke-width="2.0" stroke-linejoin="round" stroke-linecap="round" stroke="#4CAF50"/>
<path fill="#4CAF50" clip-rule="evenodd" fill-opacity="1.0" d="M41 13V25V13Z" fill-rule="evenodd"/>
<path d="M41 13V25" stroke-width="2.0" stroke-linejoin="round" stroke-linecap="round" stroke="#4CAF50"/>
<path stroke-linecap="round" fill-opacity="1.0" fill="#4CAF50" stroke-linejoin="round" d="M4 40.8V42H34V40.8C34 36.3196 34 34.0794 33.1281 32.3681C32.3611 30.8628 31.1372 29.6389 29.6319 28.8719C27.9206 28 25.6804 28 21.2 28H16.8C12.3196 28 10.0794 28 8.36808 28.8719C6.86278 29.6389 5.63893 30.8628 4.87195 32.3681C4 34.0794 4 36.3196 4 40.8Z" stroke="#4CAF50" stroke-width="2.0"/>
</svg>