<?xml version="1.0" encoding="UTF-8"?><svg xmlns="http://www.w3.org/2000/svg" xmlns:xlink="http://www.w3.org/1999/xlink" contentScriptType="text/ecmascript" zoomAndPan="magnify" contentStyleType="text/css" style="stroke-opacity: 1.0;" version="1.0" width="48" fill="none" preserveAspectRatio="xMidYMid meet" viewBox="0 0 48 48" height="48" opacity="1.0">
<path d="M5 8C5 6.89543 5.89543 6 7 6H41C42.1046 6 43 6.89543 43 8V32C43 33.1046 42.1046 34 41 34H7C5.89543 34 5 33.1046 5 32V8Z" stroke-width="2.0" stroke-linejoin="round" stroke-linecap="round" stroke="#4CAF50"/>
<path stroke-linecap="round" fill-opacity="1.0" fill="#4CAF50" stroke-linejoin="round" d="M5 26C5 24.8954 5.89543 24 7 24H41C42.1046 24 43 24.8954 43 26V32C43 33.1046 42.1046 34 41 34H7C5.89543 34 5 33.1046 5 32V26Z" stroke="#4CAF50" stroke-width="2.0"/>
<path d="M22 12L18 17" stroke-width="2.0" stroke-linejoin="round" stroke-linecap="round" stroke="#4CAF50"/>
<path d="M28 14L25 18" stroke-width="2.0" stroke-linejoin="round" stroke-linecap="round" stroke="#4CAF50"/>
<circle fill="white" fill-opacity="1.0" r="2" cx="24" cy="29"/>
<path d="M17 34L14 42H34L31 34" stroke-width="2.0" stroke-linejoin="round" stroke-linecap="round" stroke="#4CAF50"/>
</svg>